<?xml version="1.0" encoding="UTF-8" standalone="no"?>
<svg width="40px" height="40px" viewBox="0 0 48 55" version="1.1" xmlns="http://www.w3.org/2000/svg" xmlns:xlink="http://www.w3.org/1999/xlink">
    <!-- Generator: Sketch 40.1 (33804) - http://www.bohemiancoding.com/sketch -->
    <title>28 -Apple- (social, media, communication, flat)</title>
    <desc>Created with Sketch.</desc>
    <defs></defs>
    <g id="Page-1" stroke="none" stroke-width="1" fill="none" fill-rule="evenodd">
        <g id="Icons" transform="translate(-968.000000, -617.000000)" fill="#D0D1D3">
            <g id="28--Apple--(social,-media,-communication,-flat)" transform="translate(968.000000, 617.000000)">
                <path d="M47.1821,38.9308 L47.1821,38.5488 C42.5891,36.1008 40.0971,32.5058 40.0971,27.3018 C40.0971,23.0948 41.9661,19.4208 45.3911,17.0508 L45.5471,16.9738 C43.2891,14.2208 40.2531,11.4668 35.5811,11.4668 C32.3121,11.4668 29.5861,14.6038 25.0711,14.6038 C21.4901,14.6038 20.0091,11.6198 16.1161,11.6198 C8.0201,11.6198 0.0001,18.7348 0.0001,27.9918 C0.0001,32.8888 1.6351,40.4638 5.2941,47.0438 C7.9431,51.8638 11.2121,54.9998 14.8721,54.9998 C17.5181,54.9998 20.6321,52.6288 24.3711,52.6288 C27.6401,52.6288 30.6791,54.7728 33.6351,54.7728 C40.7221,54.7728 47.2611,45.7448 47.2611,39.7028 C47.2611,39.3908 47.1821,39.1618 47.1821,38.9308" id="Fill-129"></path>
                <path d="M24.9081,14.6131 C30.2031,13.0061 35.1091,9.1031 35.1091,2.2951 C35.1091,1.7591 35.0321,1.0711 34.9531,0.3061 L34.8761,0.0001 C29.5041,1.4511 24.6771,5.5831 24.6771,12.0871 C24.6771,12.7001 24.7561,13.4651 24.9101,14.3071 L24.9101,14.6131 L24.9081,14.6131 Z" id="Fill-130"></path>
            </g>
        </g>
    </g>
</svg>
