<?xml version="1.0" encoding="UTF-8"?>
<svg width="60px" height="46px" viewBox="0 0 60 46" version="1.1" xmlns="http://www.w3.org/2000/svg" xmlns:xlink="http://www.w3.org/1999/xlink">
    <!-- Generator: Sketch 41.1 (35376) - http://www.bohemiancoding.com/sketch -->
    <title>16 -Like Mail- (communication, dialogue, discussion)</title>
    <desc>Created with Sketch.</desc>
    <defs></defs>
    <g id="Page-1" stroke="none" stroke-width="1" fill="none" fill-rule="evenodd">
        <g id="Icons" transform="translate(-700.000000, -457.000000)">
            <g id="16--Like-Mail--(communication,-dialogue,-discussion)" transform="translate(701.000000, 458.000000)">
                <polygon id="Fill-242" fill="#FFFFFF" points="25 24.0007 50 0.0007 0 0.0007"></polygon>
                <polygon id="Stroke-243" stroke="#0096E6" stroke-width="2" stroke-linecap="round" stroke-linejoin="round" points="25 24.0007 50 0.0007 0 0.0007"></polygon>
                <polygon id="Fill-244" fill="#FFFFFF" points="0 36.0007 0 -0.0003 16.766 16.0967"></polygon>
                <polygon id="Stroke-245" stroke="#0096E6" stroke-width="2" stroke-linecap="round" stroke-linejoin="round" points="0 36.0007 0 -0.0003 16.766 16.0967"></polygon>
                <path d="M58,33.0007 C58,39.0757 53.075,44.0007 47,44.0007 C40.925,44.0007 36,39.0757 36,33.0007 C36,26.9257 40.925,22.0007 47,22.0007 C53.075,22.0007 58,26.9257 58,33.0007" id="Fill-246" fill="#D0E8F9"></path>
                <path d="M58,33.0007 C58,39.0757 53.075,44.0007 47,44.0007 C40.925,44.0007 36,39.0757 36,33.0007 C36,26.9257 40.925,22.0007 47,22.0007 C53.075,22.0007 58,26.9257 58,33.0007 L58,33.0007 Z" id="Stroke-247" stroke="#0096E6" stroke-width="2" stroke-linecap="round" stroke-linejoin="round"></path>
                <path d="M47,22.0007 C48.042,22.0007 49.045,22.1547 50,22.4257 L50,-0.0003 L33.234,16.0957 C33.234,16.0957 36.816,20.3487 40.199,24.3657 C42.072,22.8887 44.43,22.0007 47,22.0007" id="Fill-266" fill="#FFFFFF"></path>
                <path d="M47,22.0007 C48.042,22.0007 49.045,22.1547 50,22.4257 L50,-0.0003 L33.234,16.0957 C33.234,16.0957 36.816,20.3487 40.199,24.3657 C42.072,22.8887 44.43,22.0007 47,22.0007 L47,22.0007 Z" id="Stroke-267" stroke="#0096E6" stroke-width="2" stroke-linecap="round" stroke-linejoin="round"></path>
                <path d="M36,33.0007 C36,29.4927 37.647,26.3757 40.204,24.3617 C36.558,20.0317 33.279,16.1387 33.234,16.0957 L25,24.0007 L16.766,16.0967 L0,36.0007 L36.425,36.0007 C36.154,35.0457 36,34.0417 36,33.0007" id="Fill-268" fill="#FFFFFF"></path>
                <path d="M36,33.0007 C36,29.4927 37.647,26.3757 40.204,24.3617 C36.558,20.0317 33.279,16.1387 33.234,16.0957 L25,24.0007 L16.766,16.0967 L0,36.0007 L36.425,36.0007 C36.154,35.0457 36,34.0417 36,33.0007 L36,33.0007 Z" id="Stroke-269" stroke="#0096E6" stroke-width="2" stroke-linecap="round" stroke-linejoin="round"></path>
                <path d="M47,30 C47.484,28.856 48.555,28 49.842,28 C51.575,28 52.824,29.478 52.981,31.239 C52.981,31.239 53.066,31.676 52.879,32.463 C52.625,33.535 52.028,34.487 51.224,35.214 L47,39 L42.776,35.213 C41.972,34.487 41.375,33.535 41.121,32.463 C40.934,31.676 41.019,31.239 41.019,31.239 C41.176,29.478 42.425,28 44.158,28 C45.445,28 46.516,28.856 47,30" id="Fill-270" fill="#FFFFFF"></path>
                <path d="M47,30 C47.484,28.856 48.555,28 49.842,28 C51.575,28 52.824,29.478 52.981,31.239 C52.981,31.239 53.066,31.676 52.879,32.463 C52.625,33.535 52.028,34.487 51.224,35.214 L47,39 L42.776,35.213 C41.972,34.487 41.375,33.535 41.121,32.463 C40.934,31.676 41.019,31.239 41.019,31.239 C41.176,29.478 42.425,28 44.158,28 C45.445,28 46.516,28.856 47,30 L47,30 Z" id="Stroke-271" stroke="#0096E6" stroke-width="2" stroke-linecap="round" stroke-linejoin="round"></path>
            </g>
        </g>
    </g>
</svg>