<?xml version="1.0" encoding="UTF-8" standalone="no"?>
<svg width="40px" height="40px" viewBox="0 0 60 43" version="1.1" xmlns="http://www.w3.org/2000/svg" xmlns:xlink="http://www.w3.org/1999/xlink">
    <!-- Generator: Sketch 40.1 (33804) - http://www.bohemiancoding.com/sketch -->
    <title>10 - Mail (communication, dialogue, discussion, webby)</title>
    <desc>Created with Sketch.</desc>
    <defs></defs>
    <g id="Page-1" stroke="none" stroke-width="1" fill="none" fill-rule="evenodd">
        <g id="Icons" transform="translate(-120.000000, -1447.000000)">
            <g id="Mail" transform="translate(121.000000, 1448.000000)">
                <polygon id="Fill-29" fill="#FFFFFF" fill-rule="evenodd" points="0 41 58 41 58 0 0 0"></polygon>
                <polygon id="Stroke-30" stroke="#0F81E0" stroke-width="2" stroke-linecap="round" stroke-linejoin="round" points="0 41 58 41 58 0 0 0"></polygon>
                <path d="M0,0.001 L27.138,27.268 C28.187,28.244 29.813,28.244 30.862,27.268 L58,0 L0,0.001 L0,0.001 Z" id="Fill-33" fill="#FFFFFF" fill-rule="evenodd"></path>
                <path d="M0,0.001 L27.138,27.268 C28.187,28.244 29.813,28.244 30.862,27.268 L58,0 L0,0.001 L0,0.001 Z" id="Stroke-34" stroke="#0F81E0" stroke-width="2" stroke-linecap="round" stroke-linejoin="round"></path>
                <path d="M0,39.709 L0,1.291 C0,0.762 0.606,0.462 1.027,0.783 L21,21 L1.027,40.218 C0.606,40.538 0,40.238 0,39.709 L0,39.709 Z M58,39.709 L58,1.291 C58,0.762 57.394,0.462 56.973,0.783 L37,21 L56.973,40.218 C57.394,40.538 58,40.238 58,39.709 L58,39.709 Z" id="Stroke-40" stroke="#0F81E0" stroke-width="2" stroke-linecap="round" stroke-linejoin="round"></path>
            </g>
        </g>
    </g>
</svg>
