<?xml version="1.0" encoding="UTF-8" standalone="no"?>
<svg width="60px" height="54px" viewBox="0 0 60 54" version="1.1" xmlns="http://www.w3.org/2000/svg" xmlns:xlink="http://www.w3.org/1999/xlink">
    <!-- Generator: Sketch 40.1 (33804) - http://www.bohemiancoding.com/sketch -->
    <title>29 - Headphones (technology, device, gadget, retro)</title>
    <desc>Created with Sketch.</desc>
    <defs></defs>
    <g id="Page-1" stroke="none" stroke-width="1" fill="none" fill-rule="evenodd">
        <g id="Icons" transform="translate(-239.000000, -1403.000000)">
            <g id="29---Headphones-(technology,-device,-gadget,-retro)" transform="translate(240.000000, 1404.000000)">
                <polygon id="Fill-599" fill="#A4C8D8" points="6.003 32 10.003 32 10.003 25 6.003 25"></polygon>
                <polygon id="Fill-600" fill="#A4C8D8" points="48.003 32 52.003 32 52.003 25 48.003 25"></polygon>
                <path d="M5.0028,52 L5.0028,52 C2.2418,52 0.0028,49.761 0.0028,47 L0.0028,37 C0.0028,34.239 2.2418,32 5.0028,32 L5.0028,32 L5.0028,52 Z" id="Fill-601" fill="#839494"></path>
                <path d="M53.0028,52 L53.0028,52 L53.0028,32 L53.0028,32 C55.7638,32 58.0028,34.239 58.0028,37 L58.0028,47 C58.0028,49.761 55.7638,52 53.0028,52" id="Fill-602" fill="#839494"></path>
                <path d="M11.0028,41 C10.4508,41 10.0028,40.553 10.0028,40 C10.0028,39.447 10.4508,39 11.0028,39 L14.0028,39 L14.0028,37 L11.0028,37 C10.4508,37 10.0028,36.553 10.0028,36 C10.0028,35.447 10.4508,35 11.0028,35 L13.9188,35 C13.5558,33.287 12.0378,32 10.2158,32 L5.4858,32 C5.2188,32 5.0028,32.216 5.0028,32.483 L5.0028,51.71 C5.0028,51.87 5.1328,52 5.2928,52 L10.5168,52 C12.2758,52 13.7158,50.693 13.9538,49 L11.0028,49 C10.4508,49 10.0028,48.553 10.0028,48 C10.0028,47.447 10.4508,47 11.0028,47 L14.0028,47 L14.0028,45 L11.0028,45 C10.4508,45 10.0028,44.553 10.0028,44 C10.0028,43.447 10.4508,43 11.0028,43 L14.0028,43 L14.0028,41 L11.0028,41 Z" id="Fill-603" fill="#E8EDEE"></path>
                <path d="M10.0028,36 C10.0028,36.553 10.4508,37 11.0028,37 L14.0028,37 L14.0028,35.787 C14.0028,35.517 13.9728,35.254 13.9188,35 L11.0028,35 C10.4508,35 10.0028,35.447 10.0028,36" id="Fill-604" fill="#839494"></path>
                <path d="M10.0028,40 C10.0028,40.553 10.4508,41 11.0028,41 L14.0028,41 L14.0028,39 L11.0028,39 C10.4508,39 10.0028,39.447 10.0028,40" id="Fill-605" fill="#839494"></path>
                <path d="M10.0028,44 C10.0028,44.553 10.4508,45 11.0028,45 L14.0028,45 L14.0028,43 L11.0028,43 C10.4508,43 10.0028,43.447 10.0028,44" id="Fill-606" fill="#839494"></path>
                <path d="M10.0028,48 C10.0028,48.553 10.4508,49 11.0028,49 L13.9538,49 C13.9768,48.84 14.0028,48.68 14.0028,48.514 L14.0028,47 L11.0028,47 C10.4508,47 10.0028,47.447 10.0028,48" id="Fill-607" fill="#839494"></path>
                <path d="M52.672,32 L47.789,32 C45.968,32 44.449,33.287 44.087,35 L47.003,35 C47.555,35 48.003,35.447 48.003,36 C48.003,36.553 47.555,37 47.003,37 L44.003,37 L44.003,39 L47.003,39 C47.555,39 48.003,39.447 48.003,40 C48.003,40.553 47.555,41 47.003,41 L44.003,41 L44.003,43 L47.003,43 C47.555,43 48.003,43.447 48.003,44 C48.003,44.553 47.555,45 47.003,45 L44.003,45 L44.003,47 L47.003,47 C47.555,47 48.003,47.447 48.003,48 C48.003,48.553 47.555,49 47.003,49 L44.052,49 C44.29,50.693 45.73,52 47.489,52 L52.713,52 C52.873,52 53.003,51.87 53.003,51.71 L53.003,32.331 C53.003,32.148 52.855,32 52.672,32" id="Fill-608" fill="#E8EDEE"></path>
                <path d="M48.0028,36 C48.0028,35.447 47.5548,35 47.0028,35 L44.0868,35 C44.0328,35.254 44.0028,35.517 44.0028,35.787 L44.0028,37 L47.0028,37 C47.5548,37 48.0028,36.553 48.0028,36" id="Fill-609" fill="#839494"></path>
                <path d="M48.0028,40 C48.0028,39.447 47.5548,39 47.0028,39 L44.0028,39 L44.0028,41 L47.0028,41 C47.5548,41 48.0028,40.553 48.0028,40" id="Fill-610" fill="#839494"></path>
                <path d="M48.0028,44 C48.0028,43.447 47.5548,43 47.0028,43 L44.0028,43 L44.0028,45 L47.0028,45 C47.5548,45 48.0028,44.553 48.0028,44" id="Fill-611" fill="#839494"></path>
                <path d="M48.0028,48 C48.0028,47.447 47.5548,47 47.0028,47 L44.0028,47 L44.0028,48.514 C44.0028,48.68 44.0288,48.84 44.0518,49 L47.0028,49 C47.5548,49 48.0028,48.553 48.0028,48" id="Fill-612" fill="#839494"></path>
                <path d="M43.4861,11.4954 C42.7661,12.1564 41.6751,12.1504 40.9371,11.5104 C38.3101,9.2354 32.5171,8.0004 29.0031,8.0004 C25.4881,8.0004 19.6961,9.2354 17.0691,11.5104 C16.3301,12.1504 15.2391,12.1564 14.5191,11.4954 L11.4181,8.6454 C10.6011,7.8934 10.5831,6.5894 11.4061,5.8444 C15.5301,2.1084 23.4261,0.0004 29.0031,0.0004 C34.5801,0.0004 42.4761,2.1084 46.5991,5.8444 C47.4221,6.5894 47.4051,7.8934 46.5871,8.6454 L43.4861,11.4954 Z" id="Fill-613" fill="#A4C8D8"></path>
                <path d="M14.5195,11.4954 L11.4185,8.6454 C11.1605,8.4084 10.9915,8.1144 10.8945,7.8024 C7.2215,11.8674 5.0025,17.3964 5.0025,23.3864 L5.0025,25.0004 L11.0025,25.0004 L11.0025,23.3864 C11.0025,19.0194 12.6245,14.9244 15.3065,11.9204 C15.0225,11.8444 14.7515,11.7084 14.5195,11.4954" id="Fill-614" fill="#E0E2E3"></path>
                <path d="M46.952,8.1692 C46.855,8.3412 46.74,8.5042 46.587,8.6452 L43.486,11.4952 C43.134,11.8192 42.692,11.9812 42.246,11.9882 C45.15,14.9862 47.003,19.0512 47.003,23.3862 L47.003,25.0002 L53.003,25.0002 L53.003,23.3862 C53.003,17.5742 50.679,12.1982 46.952,8.1692" id="Fill-615" fill="#E0E2E3"></path>
                <polygon id="Stroke-2474" stroke="#000000" stroke-width="2" points="6.003 32 10.003 32 10.003 25 6.003 25"></polygon>
                <polygon id="Stroke-2475" stroke="#000000" stroke-width="2" points="48.003 32 52.003 32 52.003 25 48.003 25"></polygon>
                <path d="M10.5167,52 L5.2927,52 C5.1327,52 5.0027,51.87 5.0027,51.71 L5.0027,32.483 C5.0027,32.216 5.2187,32 5.4857,32 L10.2157,32 C12.3077,32 14.0027,33.695 14.0027,35.787 L14.0027,48.514 C14.0027,50.439 12.4417,52 10.5167,52 L10.5167,52 Z" id="Stroke-2476" stroke="#000000" stroke-width="2"></path>
                <path d="M5.0028,52 L5.0028,52 C2.2418,52 0.0028,49.761 0.0028,47 L0.0028,37 C0.0028,34.239 2.2418,32 5.0028,32 L5.0028,32 L5.0028,52 L5.0028,52 Z" id="Stroke-2477" stroke="#000000" stroke-width="2"></path>
                <path d="M53.0028,52 L53.0028,52 L53.0028,32 L53.0028,32 C55.7638,32 58.0028,34.239 58.0028,37 L58.0028,47 C58.0028,49.761 55.7638,52 53.0028,52 L53.0028,52 Z" id="Stroke-2478" stroke="#000000" stroke-width="2"></path>
                <path d="M52.7131,52 L47.4891,52 C45.5631,52 44.0031,50.439 44.0031,48.514 L44.0031,35.787 C44.0031,33.695 45.6981,32 47.7891,32 L52.6721,32 C52.8551,32 53.0031,32.148 53.0031,32.331 L53.0031,51.71 C53.0031,51.87 52.8731,52 52.7131,52 L52.7131,52 Z" id="Stroke-2479" stroke="#000000" stroke-width="2"></path>
                <path d="M11.0028,36 L14.0028,36" id="Stroke-2480" stroke="#000000" stroke-width="2" stroke-linecap="round"></path>
                <path d="M11.0028,40 L14.0028,40" id="Stroke-2481" stroke="#000000" stroke-width="2" stroke-linecap="round"></path>
                <path d="M11.0028,44 L14.0028,44" id="Stroke-2482" stroke="#000000" stroke-width="2" stroke-linecap="round"></path>
                <path d="M11.0028,48 L14.0028,48" id="Stroke-2483" stroke="#000000" stroke-width="2" stroke-linecap="round"></path>
                <path d="M44.0028,36 L47.0028,36" id="Stroke-2484" stroke="#000000" stroke-width="2" stroke-linecap="round"></path>
                <path d="M44.0028,40 L47.0028,40" id="Stroke-2485" stroke="#000000" stroke-width="2" stroke-linecap="round"></path>
                <path d="M44.0028,44 L47.0028,44" id="Stroke-2486" stroke="#000000" stroke-width="2" stroke-linecap="round"></path>
                <path d="M44.0028,48 L47.0028,48" id="Stroke-2487" stroke="#000000" stroke-width="2" stroke-linecap="round"></path>
                <path d="M43.4861,11.4954 C42.7661,12.1564 41.6751,12.1504 40.9371,11.5104 C38.3101,9.2354 32.5171,8.0004 29.0031,8.0004 C25.4881,8.0004 19.6961,9.2354 17.0691,11.5104 C16.3301,12.1504 15.2391,12.1564 14.5191,11.4954 L11.4181,8.6454 C10.6011,7.8934 10.5831,6.5894 11.4061,5.8444 C15.5301,2.1084 23.4261,0.0004 29.0031,0.0004 C34.5801,0.0004 42.4761,2.1084 46.5991,5.8444 C47.4221,6.5894 47.4051,7.8934 46.5871,8.6454 L43.4861,11.4954 L43.4861,11.4954 Z" id="Stroke-2488" stroke="#000000" stroke-width="2" stroke-linecap="round"></path>
                <path d="M14.5195,11.4954 L11.4185,8.6454 C11.1605,8.4084 10.9915,8.1144 10.8945,7.8024 C7.2215,11.8674 5.0025,17.3964 5.0025,23.3864 L5.0025,25.0004 L11.0025,25.0004 L11.0025,23.3864 C11.0025,19.0194 12.6245,14.9244 15.3065,11.9204 C15.0225,11.8444 14.7515,11.7084 14.5195,11.4954 L14.5195,11.4954 Z" id="Stroke-2489" stroke="#000000" stroke-width="2"></path>
                <path d="M46.952,8.1692 C46.855,8.3412 46.74,8.5042 46.587,8.6452 L43.486,11.4952 C43.134,11.8192 42.692,11.9812 42.246,11.9882 C45.15,14.9862 47.003,19.0512 47.003,23.3862 L47.003,25.0002 L53.003,25.0002 L53.003,23.3862 C53.003,17.5742 50.679,12.1982 46.952,8.1692 L46.952,8.1692 Z" id="Stroke-2490" stroke="#000000" stroke-width="2"></path>
            </g>
        </g>
    </g>
</svg>