<?xml version="1.0" encoding="UTF-8"?>
<svg width="47px" height="60px" viewBox="0 0 47 60" version="1.1" xmlns="http://www.w3.org/2000/svg" xmlns:xlink="http://www.w3.org/1999/xlink">
    <!-- Generator: Sketch 41.1 (35376) - http://www.bohemiancoding.com/sketch -->
    <title>14 -Signal- (technology, device, gadget)</title>
    <desc>Created with Sketch.</desc>
    <defs></defs>
    <g id="Page-1" stroke="none" stroke-width="1" fill="none" fill-rule="evenodd">
        <g id="Icons" transform="translate(-487.000000, -450.000000)">
            <g id="14--Signal--(technology,-device,-gadget)" transform="translate(488.000000, 451.000000)">
                <path d="M19.1997,-0.0002 C33.9997,3.6778 44.9997,17.0788 44.9997,32.9998" id="Stroke-359" stroke="#3D83F3" stroke-width="2" stroke-linecap="round" stroke-linejoin="round"></path>
                <path d="M11,7.0003 C25.336,7.0003 37,18.6643 37,33.0003" id="Stroke-360" stroke="#3D83F3" stroke-width="2" stroke-linecap="round" stroke-linejoin="round"></path>
                <path d="M11,15.0003 C20.925,15.0003 29,23.0753 29,33.0003" id="Stroke-361" stroke="#3D83F3" stroke-width="2" stroke-linecap="round" stroke-linejoin="round"></path>
                <path d="M10,24.0003 C4.477,24.0003 0,28.4773 0,34.0003 C0,39.5233 4.477,44.0003 10,44.0003 C15.523,44.0003 20,39.5233 20,34.0003 C20,28.4773 15.523,24.0003 10,24.0003" id="Fill-362" fill="#3D83F3"></path>
                <path d="M10,24.0003 C9.663,24.0003 9.329,24.0183 9,24.0503 C14.053,24.5523 18,28.8143 18,34.0003 C18,39.1853 14.053,43.4483 9,43.9503 C9.329,43.9823 9.663,44.0003 10,44.0003 C15.523,44.0003 20,39.5233 20,34.0003 C20,28.4773 15.523,24.0003 10,24.0003" id="Fill-363" fill="#315ED8"></path>
                <path d="M10,24.0003 C10.337,24.0003 10.671,24.0183 11,24.0503 C5.947,24.5523 2,28.8143 2,34.0003 C2,39.1853 5.947,43.4483 11,43.9503 C10.671,43.9823 10.337,44.0003 10,44.0003 C4.477,44.0003 0,39.5233 0,34.0003 C0,28.4773 4.477,24.0003 10,24.0003" id="Fill-364" fill="#FFFFFF"></path>
                <polygon id="Fill-365" fill="#3D83F3" points="8 58 12 58 12 48 8 48"></polygon>
                <path d="M10,44.0003 C8.577,44.0003 7.226,43.6983 6,43.1623 L6,46.0003 C6,47.1043 6.896,48.0003 8,48.0003 L12,48.0003 C13.104,48.0003 14,47.1043 14,46.0003 L14,43.1623 C12.774,43.6983 11.423,44.0003 10,44.0003" id="Fill-366" fill="#3D83F3"></path>
                <path d="M10,0.0003 C28.748,0.0003 44,15.2523 44,34.0003" id="Stroke-795" stroke="#000000" stroke-width="2" stroke-linecap="round" stroke-linejoin="round"></path>
                <path d="M10,8.0003 C24.336,8.0003 36,19.6643 36,34.0003" id="Stroke-796" stroke="#000000" stroke-width="2" stroke-linecap="round" stroke-linejoin="round"></path>
                <path d="M10,16.0003 C19.925,16.0003 28,24.0753 28,34.0003" id="Stroke-797" stroke="#000000" stroke-width="2" stroke-linecap="round" stroke-linejoin="round"></path>
                <path d="M10,24.0003 C4.477,24.0003 0,28.4773 0,34.0003 C0,39.5233 4.477,44.0003 10,44.0003 C15.523,44.0003 20,39.5233 20,34.0003 C20,28.4773 15.523,24.0003 10,24.0003 Z" id="Stroke-798" stroke="#000000" stroke-width="2" stroke-linecap="round" stroke-linejoin="round"></path>
                <path d="M1,58.0003 L19,58.0003" id="Stroke-799" stroke="#000000" stroke-width="2" stroke-linecap="round" stroke-linejoin="round"></path>
                <polygon id="Stroke-800" stroke="#000000" stroke-width="2" stroke-linecap="round" stroke-linejoin="round" points="8 58 12 58 12 48 8 48"></polygon>
                <path d="M10,44.0003 C8.577,44.0003 7.226,43.6983 6,43.1623 L6,46.0003 C6,47.1043 6.896,48.0003 8,48.0003 L12,48.0003 C13.104,48.0003 14,47.1043 14,46.0003 L14,43.1623 C12.774,43.6983 11.423,44.0003 10,44.0003 Z" id="Stroke-801" stroke="#000000" stroke-width="2" stroke-linecap="round" stroke-linejoin="round"></path>
                <path d="M13,39.1887 C14.791,38.1487 16,36.2157 16,34.0007 C16,31.7847 14.791,29.8517 13,28.8117" id="Stroke-802" stroke="#000000" stroke-width="2" stroke-linecap="round" stroke-linejoin="round"></path>
            </g>
        </g>
    </g>
</svg>