<?xml version="1.0" standalone="no"?>
<!DOCTYPE svg PUBLIC "-//W3C//DTD SVG 20010904//EN"
 "http://www.w3.org/TR/2001/REC-SVG-20010904/DTD/svg10.dtd">
<svg version="1.0" xmlns="http://www.w3.org/2000/svg"
 width="1000.000000pt" height="1000.000000pt" viewBox="0 0 1000.000000 1000.000000"
 preserveAspectRatio="xMidYMid meet">
<metadata>
Created by potrace 1.11, written by Peter Selinger 2001-2013
</metadata>
<g transform="translate(0.000000,1000.000000) scale(0.100000,-0.100000)"
fill="#000000" stroke="none">
<path d="M760 4995 l0 -2625 525 0 525 0 0 975 0 975 423 0 423 0 419 -967
c230 -533 421 -971 425 -976 3 -4 258 -6 567 -5 l560 3 -433 988 c-239 544
-434 992 -434 996 0 4 19 13 43 20 82 24 223 101 302 165 194 154 321 393 354
661 15 123 15 1407 0 1530 -59 481 -393 815 -874 874 -62 7 -522 11 -1457 11
l-1368 0 0 -2625z m2545 1604 c35 -18 59 -39 80 -74 l30 -48 0 -511 c0 -510 0
-511 -22 -553 -25 -47 -71 -84 -122 -102 -24 -8 -241 -11 -747 -11 l-714 0 0
665 0 666 723 -3 723 -3 49 -26z"/>
<path d="M5490 4995 l0 -2625 1393 0 c1512 0 1489 -1 1667 56 377 118 622 426
670 840 8 67 10 271 8 624 l-4 525 -27 90 c-73 234 -203 386 -462 540 -15 9
-8 17 51 55 141 91 271 246 328 391 58 146 59 156 63 664 3 315 1 503 -7 569
-57 489 -390 825 -875 885 -62 7 -519 11 -1447 11 l-1358 0 0 -2625z m2491
1634 c51 -18 97 -55 122 -102 22 -42 22 -46 22 -462 0 -414 0 -421 -22 -461
-14 -26 -36 -48 -60 -60 -36 -18 -76 -19 -770 -22 l-733 -3 0 561 0 560 704 0
c499 0 713 -3 737 -11z m73 -2059 c54 -20 100 -68 115 -121 9 -32 11 -163 9
-494 -3 -442 -3 -451 -25 -491 -28 -52 -72 -90 -121 -104 -24 -6 -295 -10
-764 -10 l-728 0 0 620 0 621 738 -4 c609 -2 744 -5 776 -17z"/>
</g>
</svg>
