<?xml version="1.0" encoding="UTF-8" standalone="no"?>
<svg width="58px" height="25px" viewBox="0 0 58 25" version="1.1" xmlns="http://www.w3.org/2000/svg" xmlns:xlink="http://www.w3.org/1999/xlink">
    <!-- Generator: Sketch 40.1 (33804) - http://www.bohemiancoding.com/sketch -->
    <title>14 -Soundcloud- (social, media, communication, flat)</title>
    <desc>Created with Sketch.</desc>
    <defs></defs>
    <g id="Page-1" stroke="none" stroke-width="1" fill="none" fill-rule="evenodd">
        <g id="Icons" transform="translate(-481.000000, -510.000000)" fill="#FB780B">
            <g id="14--Soundcloud--(social,-media,-communication,-flat)" transform="translate(481.000000, 510.000000)">
                <path d="M2,25.0001 L2,25.0001 C0.9,25.0001 0,24.1001 0,23.0001 L0,19.0001 C0,17.9001 0.9,17.0001 2,17.0001 C3.1,17.0001 4,17.9001 4,19.0001 L4,23.0001 C4,24.1001 3.1,25.0001 2,25.0001" id="Fill-138"></path>
                <path d="M10,25.0001 L10,25.0001 C8.9,25.0001 8,24.1001 8,23.0001 L8,15.0001 C8,13.9001 8.9,13.0001 10,13.0001 C11.1,13.0001 12,13.9001 12,15.0001 L12,23.0001 C12,24.1001 11.1,25.0001 10,25.0001" id="Fill-139"></path>
                <path d="M18,25.0001 L18,25.0001 C16.9,25.0001 16,24.1001 16,23.0001 L16,11.0001 C16,9.9001 16.9,9.0001 18,9.0001 C19.1,9.0001 20,9.9001 20,11.0001 L20,23.0001 C20,24.1001 19.1,25.0001 18,25.0001" id="Fill-140"></path>
                <path d="M26,25.0001 L26,25.0001 C24.9,25.0001 24,23.8751 24,22.5001 L24,7.5001 C24,6.1251 24.9,5.0001 26,5.0001 C27.1,5.0001 28,6.1251 28,7.5001 L28,22.5001 C28,23.8751 27.1,25.0001 26,25.0001" id="Fill-141"></path>
                <path d="M51,25.0001 C54.866,25.0001 58,21.8661 58,18.0001 C58,14.1341 54.866,11.0001 51,11.0001 C50.21,11.0001 49.454,11.1371 48.746,11.3781 C47.517,4.9011 41.835,0.0001 35,0.0001 C33.969,0.0001 32.966,0.1161 32,0.3321 L32,25.0001 L43.642,25.0001 L51,25.0001 Z" id="Fill-142"></path>
            </g>
        </g>
    </g>
</svg>