<?xml version="1.0" encoding="UTF-8" standalone="no"?>
<svg width="60px" height="60px" viewBox="0 0 60 60" version="1.1" xmlns="http://www.w3.org/2000/svg" xmlns:xlink="http://www.w3.org/1999/xlink">
    <!-- Generator: Sketch 40.1 (33804) - http://www.bohemiancoding.com/sketch -->
    <title>98 - Search Engine (user, interface, communication, retro)</title>
    <desc>Created with Sketch.</desc>
    <defs></defs>
    <g id="Page-1" stroke="none" stroke-width="1" fill="none" fill-rule="evenodd">
        <g id="Icons" transform="translate(-360.000000, -379.000000)">
            <g id="98---Search-Engine-(user,-interface,-communication,-retro)" transform="translate(361.000000, 380.000000)">
                <polygon id="Fill-12" fill="#ECF0F1" points="0 58 58 58 58 0 0 0"></polygon>
                <polygon id="Fill-14" fill="#546A79" points="0 12 58 12 58 0 0 0"></polygon>
                <path d="M9,6 C9,7.657 7.657,9 6,9 C4.343,9 3,7.657 3,6 C3,4.343 4.343,3 6,3 C7.657,3 9,4.343 9,6" id="Fill-15" fill="#ED7161"></path>
                <path d="M18,6 C18,7.657 16.657,9 15,9 C13.343,9 12,7.657 12,6 C12,4.343 13.343,3 15,3 C16.657,3 18,4.343 18,6" id="Fill-16" fill="#F0C419"></path>
                <path d="M27,6 C27,7.657 25.657,9 24,9 C22.343,9 21,7.657 21,6 C21,4.343 22.343,3 24,3 C25.657,3 27,4.343 27,6" id="Fill-17" fill="#4FBA6F"></path>
                <polygon id="Fill-265" fill="#FFFFFF" points="10 33 42 33 42 27 10 27"></polygon>
                <polygon id="Fill-268" fill="#95A5A5" points="42 33 48 33 48 27 42 27"></polygon>
                <polygon id="Fill-269" fill="#BDC3C7" points="19 42 27 42 27 40 19 40"></polygon>
                <polygon id="Fill-270" fill="#BDC3C7" points="31 42 39 42 39 40 31 40"></polygon>
                <polygon id="Stroke-1047" stroke="#000000" stroke-width="2" points="0 58 58 58 58 0 0 0"></polygon>
                <path d="M9,6 C9,7.657 7.657,9 6,9 C4.343,9 3,7.657 3,6 C3,4.343 4.343,3 6,3 C7.657,3 9,4.343 9,6 L9,6 Z" id="Stroke-1048" stroke="#000000" stroke-width="2"></path>
                <path d="M18,6 C18,7.657 16.657,9 15,9 C13.343,9 12,7.657 12,6 C12,4.343 13.343,3 15,3 C16.657,3 18,4.343 18,6 L18,6 Z" id="Stroke-1049" stroke="#000000" stroke-width="2"></path>
                <path d="M27,6 C27,7.657 25.657,9 24,9 C22.343,9 21,7.657 21,6 C21,4.343 22.343,3 24,3 C25.657,3 27,4.343 27,6 L27,6 Z" id="Stroke-1050" stroke="#000000" stroke-width="2"></path>
                <polygon id="Stroke-1051" stroke="#000000" stroke-width="2" points="0 12 58 12 58 0 0 0"></polygon>
            </g>
        </g>
    </g>
</svg>