<?xml version="1.0" standalone="no"?>
<!DOCTYPE svg PUBLIC "-//W3C//DTD SVG 20010904//EN"
 "http://www.w3.org/TR/2001/REC-SVG-20010904/DTD/svg10.dtd">
<svg version="1.0" xmlns="http://www.w3.org/2000/svg"
 width="2000.000000pt" height="2000.000000pt" viewBox="0 0 2000.000000 2000.000000"
 preserveAspectRatio="xMidYMid meet">
<metadata>
Created by potrace 1.11, written by Peter Selinger 2001-2013
</metadata>
<g transform="translate(0.000000,2000.000000) scale(0.100000,-0.100000)"
fill="#000000" stroke="none">
<path d="M1830 17030 c-116 -16 -148 -22 -235 -45 -324 -85 -568 -236 -774
-480 -81 -96 -231 -359 -231 -405 0 -9 -4 -20 -9 -25 -11 -12 -52 -156 -67
-235 -2 -14 -6 -35 -9 -47 -3 -13 -9 -49 -13 -80 -9 -76 -9 -5260 0 -5338 63
-504 322 -906 733 -1134 148 -82 346 -152 500 -175 22 -4 56 -10 75 -13 19 -4
679 -8 1465 -9 1453 -3 1445 -3 1660 31 57 8 234 65 312 99 333 147 574 382
729 712 38 81 86 216 98 276 20 95 35 181 42 228 7 55 13 1441 6 1471 -3 14
-80 16 -793 16 l-789 0 -2 -516 c-2 -596 0 -536 -18 -592 -38 -119 -116 -192
-237 -220 -53 -12 -1855 -17 -1928 -5 -50 8 -143 50 -174 79 -34 32 -65 85
-86 147 -18 53 -19 137 -19 2260 0 2350 -2 2262 47 2350 46 84 132 141 237
157 76 11 1874 5 1923 -6 52 -12 109 -39 143 -68 50 -43 97 -133 108 -208 2
-16 5 -260 5 -541 l1 -511 790 0 c565 0 790 3 793 11 2 6 3 328 2 716 -1 619
-4 746 -21 835 -2 10 -6 37 -10 59 -3 22 -7 44 -10 47 -2 4 -6 24 -10 44 -20
129 -141 391 -245 531 -106 143 -293 311 -424 381 -22 11 -56 30 -75 40 -101
56 -284 117 -450 150 -78 15 -212 17 -1535 19 -797 1 -1475 -2 -1505 -6z"/>
<path d="M14769 17036 c-2 -2 -32 -7 -66 -10 -35 -4 -68 -8 -75 -11 -7 -2 -29
-6 -48 -9 -52 -8 -175 -43 -255 -73 -240 -89 -457 -246 -616 -443 -45 -56
-129 -185 -129 -198 0 -6 -4 -12 -8 -14 -9 -3 -83 -170 -106 -239 -21 -65 -53
-195 -61 -249 -4 -25 -11 -70 -15 -100 -12 -80 -11 -5228 1 -5315 6 -38 17
-101 25 -140 8 -38 17 -81 20 -94 5 -26 41 -136 54 -166 100 -231 178 -352
320 -495 127 -129 296 -244 449 -306 36 -14 75 -30 86 -35 72 -30 254 -73 367
-86 82 -10 3023 -10 3108 -1 36 5 76 10 90 13 14 3 50 10 80 16 253 49 546
206 733 394 239 240 394 587 425 950 12 153 7 5219 -7 5300 -15 93 -21 127
-27 147 -3 9 -7 25 -9 37 -9 48 -39 147 -46 155 -5 6 -9 16 -9 24 0 14 -69
168 -90 202 -5 8 -21 35 -36 60 -182 302 -511 542 -869 634 -58 15 -72 18
-145 30 -19 3 -48 9 -65 13 -30 7 -3068 16 -3076 9z m2544 -1505 c95 -22 169
-76 208 -150 51 -99 49 20 46 -2361 -2 -2133 -3 -2217 -21 -2265 -45 -122
-123 -183 -266 -212 -14 -3 -473 -5 -1020 -6 -1103 0 -1055 -3 -1156 65 -61
42 -98 96 -121 178 -17 62 -18 182 -17 2265 0 2068 1 2204 18 2259 42 141 134
216 289 235 96 11 1988 4 2040 -8z"/>
<path d="M6840 17002 c-7 -3 -10 -258 -10 -740 l0 -737 1033 0 1032 0 3 -3223
2 -3222 793 2 792 3 0 3215 c-1 1768 2 3217 6 3220 4 3 469 5 1033 5 564 0
1027 2 1027 5 7 28 2 1463 -5 1468 -10 6 -5688 10 -5706 4z"/>
<path d="M623 6235 c0 -391 2 -435 16 -436 9 0 284 -1 611 -2 l595 -2 0 -1902
0 -1903 467 0 468 0 0 1903 0 1904 603 0 c332 0 608 2 613 5 7 5 11 762 5 856
-1 9 -346 12 -1689 12 l-1689 0 0 -435z"/>
<path d="M4675 4330 l0 -2340 467 0 468 0 0 975 0 975 805 0 805 0 0 -975 0
-975 468 0 467 0 0 2340 0 2340 -467 0 -468 0 -2 -922 -3 -923 -800 0 -800 0
-3 923 -2 922 -468 0 -467 0 0 -2340z"/>
<path d="M9185 4330 l0 -2340 467 0 468 0 0 2340 0 2340 -468 0 -467 0 0
-2340z"/>
<path d="M11152 4330 l0 -2340 439 0 439 0 2 1590 3 1590 33 -63 c19 -34 56
-105 84 -157 28 -52 62 -115 76 -140 40 -74 86 -157 162 -300 40 -74 87 -162
105 -195 18 -33 92 -170 165 -305 73 -135 145 -267 160 -295 15 -27 46 -86 70
-130 63 -118 109 -204 140 -260 15 -27 60 -111 100 -185 40 -74 87 -162 105
-195 18 -33 79 -145 135 -250 133 -246 180 -333 200 -370 9 -16 43 -79 75
-140 32 -60 69 -128 81 -150 l22 -40 506 -3 506 -2 0 2340 0 2340 -438 0 -439
0 -1 -1577 c0 -868 -1 -1585 -1 -1593 -1 -8 -11 3 -22 25 -12 22 -39 73 -60
113 -22 39 -58 107 -80 150 -23 42 -49 91 -59 107 -10 17 -41 75 -70 130 -29
55 -56 105 -60 110 -4 6 -33 60 -65 120 -53 101 -209 389 -275 510 -15 28 -43
79 -62 115 -19 36 -52 97 -73 135 -21 39 -56 104 -78 145 -22 41 -50 93 -62
115 -12 22 -38 69 -57 105 -67 124 -321 595 -348 645 -15 28 -46 86 -70 130
-24 44 -53 99 -66 123 -13 23 -46 84 -73 135 -28 50 -69 128 -93 172 l-43 80
-506 3 -507 2 0 -2340z"/>
<path d="M15789 6643 c0 -16 0 -1067 -1 -2338 l0 -2310 461 -3 461 -2 0 597 0
598 236 300 c129 165 253 323 274 350 54 67 50 63 100 127 l44 57 16 -27 c9
-15 45 -81 80 -147 34 -66 119 -226 188 -355 68 -129 149 -282 180 -340 30
-58 63 -118 72 -135 10 -16 50 -93 90 -170 40 -77 80 -153 90 -170 10 -16 48
-88 85 -160 38 -71 93 -175 122 -230 29 -55 76 -144 105 -197 l51 -98 529 0
529 0 -47 88 c-110 206 -156 292 -252 472 -24 47 -61 117 -82 155 -21 39 -59
111 -85 160 -26 50 -62 117 -80 150 -18 33 -56 105 -85 160 -29 55 -68 128
-86 162 -87 162 -105 196 -164 308 -34 66 -73 138 -85 160 -12 22 -51 94 -85
160 -35 66 -71 134 -80 150 -10 17 -43 80 -75 140 -32 61 -70 133 -85 160 -15
28 -53 100 -86 160 -32 61 -75 141 -95 179 l-37 69 137 176 c75 97 141 183
148 191 11 13 578 741 717 920 28 36 137 176 243 313 l193 247 -553 0 -552 0
-295 -402 c-162 -220 -325 -442 -362 -492 -37 -50 -71 -95 -75 -101 -5 -5 -24
-32 -43 -60 -19 -27 -37 -52 -40 -55 -3 -3 -29 -36 -57 -75 -28 -38 -106 -144
-173 -235 -67 -91 -129 -175 -138 -188 -9 -13 -24 -32 -32 -43 -8 -10 -78
-105 -155 -210 -77 -105 -164 -222 -192 -261 l-53 -72 0 1097 0 1097 -460 0
-460 0 -1 -27z"/>
</g>
</svg>
